Simulation
nRows=20
nColumns=15
endheader
time  TH_x TH_y TH_z SC_y  SC_z  SC_x  AC_y  AC_z  AC_x  GH_y  GH_z  GH_yy  EL_x  PS_y
5.745  0.000000  0.000000  0.000000  -51.86078887908659  17.465053062195025  16.541275251455872  46.63598854391279  12.069417467596175  12.851447965826539  35.39981627570819  56.01652961052455  -44.90557958833309  18.57904301463511  120.000000
5.80245  0.000000  0.000000  0.000000  -50.58184830374807  16.83963456798626  14.052238512774442  46.09553203253757  11.681362007544223  11.822750898516768  36.492324122350766  55.13686331680234  -45.496354391479386  18.87170988457638  120.000000
5.8599  0.000000  0.000000  0.000000  -49.06700850873111  16.030914050204842  11.01237845160706  45.43391665211855  11.206211764968907  10.812493029909476  37.68042810429189  53.85593689662505  -45.88934841748293  19.26467083894368  120.000000
5.91735  0.000000  0.000000  0.000000  -47.359572068057695  14.996969622817243  7.553404437837645  44.64257097296379  10.705294039057497  9.89774873431614  38.85039365704195  52.13971652622672  -46.008342054457906  19.66904624560779  120.000000
5.9748  0.000000  0.000000  0.000000  -45.50837849949682  13.720631553503196  3.8369449521607657  43.720498537175985  10.2727359744645  9.138455819106918  39.91076424924823  49.962376816117676  -45.82460180661866  19.976326573573218  120.000000
6.03225  0.000000  0.000000  0.000000  -43.56611056166559  12.218402134739703  0.039230214560211536  42.695078656110475  10.017548206722804  8.57256927619086  40.807635997363946  47.32047537789577  -45.369473436069676  20.091827904928977  120.000000
6.089700000000001  0.000000  0.000000  0.000000  -41.59169469947329  10.53780734163249  -3.6644200250594867  41.62436408058222  10.038587352756021  8.221453004946461  41.53701319781449  44.245089036666144  -44.7305671095529  19.962444894542386  120.000000
6.14715  0.000000  0.000000  0.000000  -39.65635127808986  8.751407818378553  -7.118769922617579  40.58808758308373  10.39951174133774  8.09521933543145  42.1530907834663  40.81406137554699  -44.03665872581173  19.586467310350248  120.000000
6.2046  0.000000  0.000000  0.000000  -37.84361297758459  6.955644583932249  -10.211405309332953  39.67928153246292  11.11200109945836  8.188253091536538  42.777788462873346  37.155783314692535  -43.44619347528569  19.00191644444435  120.000000
6.26205  0.000000  0.000000  0.000000  -36.24721055832286  5.254366222141753  -12.880249959096709  38.970539320183285  12.127946188866034  8.48360714361499  43.59649340228399  33.430926393080405  -43.1334841836216  18.26979750898901  120.000000
6.3195  0.000000  0.000000  0.000000  -34.95733452902654  3.744950437089187  -15.110211120759386  38.49421121591564  13.353359868168898  8.953420975241462  44.83928027587334  29.80626144349158  -43.2747793966758  17.465016433464  120.000000
6.37695  0.000000  0.000000  0.000000  -34.02859834010578  2.5072901780321244  -16.918713825561674  38.25075813864554  14.6757094162962  9.558093879434391  46.7565789570627  26.42771000713083  -44.03811393977092  16.672289968758992  120.000000
6.4344  0.000000  0.000000  0.000000  -33.46575975498836  1.5824470988922357  -18.334542340418512  38.21170703724457  15.986575868118624  10.255689362302826  49.56759493461336  23.39962217300644  -45.55919506970519  15.977878922054991  120.000000
6.49185  0.000000  0.000000  0.000000  -33.22830205416169  0.9710556021380161  -19.389890763733572  38.33106159825354  17.20195965836663  11.001704353213766  53.3965179251827  20.779261650544314  -47.907849644993654  15.455744918038418  120.000000
6.549300000000001  0.000000  0.000000  0.000000  -33.24665552810768  0.6466746751819528  -20.120807069967025  38.56089998903614  18.27020026287448  11.74862268630693  58.233847393144686  18.586273629937775  -51.069107352643144  15.154088123685973  120.000000
6.60675  0.000000  0.000000  0.000000  -33.441577502015896  0.5618875113536841  -20.566954966316313  38.856348116669025  19.168990257367593  12.451287982746129  63.92377438540986  16.813559379750906  -54.93505923995421  15.086962142663427  120.000000
6.6642  0.000000  0.000000  0.000000  -33.73831226014849  0.65574100595963  -20.770727212165536  39.173477926902045  19.89690862716308  13.07253352192953  70.17661945718113  15.428431181020018  -59.30340962547635  15.237324772695716  120.000000
6.72165  0.000000  0.000000  0.000000  -34.07706091058047  0.8663268710041055  -20.77797831321231  39.47256876457756  20.46452934783487  13.58496848796351  76.62707690618647  14.373651220145161  -63.90945063646416  15.565910030939158  120.000000
6.7791  0.000000  0.000000  0.000000  -34.41588288831989  1.1360806458443893  -20.636698764240617  39.725420367175104  20.88725889838827  13.971212863457563  82.92239994237765  13.578063388014353  -68.48589631294625  16.014746005692075  120.000000
6.83655  0.000000  0.000000  0.000000  -34.726818505563664  1.4184534105496007  -20.391544422638447  39.92169479346716  21.178536306361917  14.2244742589844  88.80255511146666  12.973844855956724  -72.82349163502924  16.508190930989844  120.000000
